<svg aria-hidden="true" style="position: absolute; width: 0; height: 0; overflow: hidden;" version="1.1" xmlns="http://www.w3.org/2000/svg" xmlns:xlink="http://www.w3.org/1999/xlink">
<defs>
<symbol id="icon-filter_hdr" viewBox="0 0 24 24">
<path d="M14.016 6l9 12h-22.031l6-8.016 4.5 6 1.594-1.172-2.813-3.797z"></path>
</symbol>
<symbol id="icon-envelope" viewBox="0 0 28 28">
<path d="M28 11.094v12.406c0 1.375-1.125 2.5-2.5 2.5h-23c-1.375 0-2.5-1.125-2.5-2.5v-12.406c0.469 0.516 1 0.969 1.578 1.359 2.594 1.766 5.219 3.531 7.766 5.391 1.313 0.969 2.938 2.156 4.641 2.156h0.031c1.703 0 3.328-1.188 4.641-2.156 2.547-1.844 5.172-3.625 7.781-5.391 0.562-0.391 1.094-0.844 1.563-1.359zM28 6.5c0 1.75-1.297 3.328-2.672 4.281-2.438 1.687-4.891 3.375-7.313 5.078-1.016 0.703-2.734 2.141-4 2.141h-0.031c-1.266 0-2.984-1.437-4-2.141-2.422-1.703-4.875-3.391-7.297-5.078-1.109-0.75-2.688-2.516-2.688-3.938 0-1.531 0.828-2.844 2.5-2.844h23c1.359 0 2.5 1.125 2.5 2.5z"></path>
</symbol>
<symbol id="icon-pagelines" viewBox="0 0 22 28">
<path d="M21.906 17.234c-3.141 7.797-10.672 3.078-10.672 3.078-2.312 4.672-6.125 7.672-10.531 7.688-0.391 0-0.703-0.313-0.703-0.703s0.313-0.688 0.703-0.688c3.672-0.016 6.875-2.438 8.969-6.281-2.344 0.906-6.766 1.594-9.219-4.688 6.219-2.562 9.078 0.641 10.172 2.594 0.562-1.391 0.969-2.906 1.234-4.547 0 0-7.969 1.25-8.531-5.594 6.797-2.734 8.703 4.375 8.703 4.375 0.094-0.953 0.187-3 0.187-3.047 0 0-6.062-4.203-2.172-9.422 7.109 2.453 3.5 9.266 3.5 9.266 0.031 0.094 0.031 1.359 0 1.906 0 0 2.578-5.078 7.781-3.281-0.234 7.641-8.094 6.062-8.094 6.062-0.25 1.563-0.641 3.047-1.141 4.422 0 0 4.734-5.234 9.812-1.141z"></path>
</symbol>
<symbol id="icon-tree" viewBox="0 0 24 28">
<path d="M23.5 23c0 0.547-0.453 1-1 1h-7.219c0.047 1 0.172 2.047 0.172 3.063 0 0.516-0.422 0.938-0.953 0.938h-5c-0.531 0-0.953-0.422-0.953-0.938 0-1.016 0.125-2.063 0.172-3.063h-7.219c-0.547 0-1-0.453-1-1 0-0.266 0.109-0.516 0.297-0.703l6.281-6.297h-3.578c-0.547 0-1-0.453-1-1 0-0.266 0.109-0.516 0.297-0.703l6.281-6.297h-3.078c-0.547 0-1-0.453-1-1 0-0.266 0.109-0.516 0.297-0.703l6-6c0.187-0.187 0.438-0.297 0.703-0.297s0.516 0.109 0.703 0.297l6 6c0.187 0.187 0.297 0.438 0.297 0.703 0 0.547-0.453 1-1 1h-3.078l6.281 6.297c0.187 0.187 0.297 0.438 0.297 0.703 0 0.547-0.453 1-1 1h-3.578l6.281 6.297c0.187 0.187 0.297 0.438 0.297 0.703z"></path>
</symbol>
<symbol id="icon-area-chart" viewBox="0 0 32 28">
<path d="M32 24v2h-32v-24h2v22h30zM26 8l4 14h-26v-9l7-9 9 9z"></path>
</symbol>
<symbol id="icon-area-graph" viewBox="0 0 20 20">
<path d="M20 2v16h-19.68c-0.318 0-0.416-0.209-0.216-0.465l4.469-5.748c0.199-0.256 0.553-0.283 0.789-0.062l1.419 1.334c0.235 0.221 0.572 0.178 0.747-0.096l3.047-4.74c0.175-0.273 0.509-0.312 0.741-0.090l2.171 2.096c0.232 0.225 0.559 0.18 0.724-0.1l5.133-7.785c0.166-0.282 0.406-0.344 0.656-0.344z"></path>
</symbol>
<symbol id="icon-airplane" viewBox="0 0 20 20">
<path d="M8.4 12h-5.6l-1.8 3h-1v-10h1l1.8 3h5.6l-2.4-8h2l4.8 8h5.2c1.105 0 2 0.895 2 2s-0.895 2-2 2v0h-5.2l-4.8 8h-2l2.4-8z"></path>
</symbol>
<symbol id="icon-brightness-up" viewBox="0 0 20 20">
<path d="M10 14c-2.209 0-4-1.791-4-4s1.791-4 4-4v0c2.209 0 4 1.791 4 4s-1.791 4-4 4v0zM9 1c0-0.552 0.448-1 1-1s1 0.448 1 1v0 2c0 0.552-0.448 1-1 1s-1-0.448-1-1v0-2zM15.65 2.94c0.184-0.215 0.456-0.35 0.76-0.35 0.552 0 1 0.448 1 1 0 0.303-0.135 0.575-0.348 0.758l-0.001 0.001-1.4 1.4c-0.184 0.215-0.456 0.35-0.76 0.35-0.552 0-1-0.448-1-1 0-0.303 0.135-0.575 0.348-0.758l0.001-0.001 1.4-1.4zM18.99 9c0.552 0 1 0.448 1 1s-0.448 1-1 1v0h-1.98c-0.552 0-1-0.448-1-1s0.448-1 1-1v0h1.98zM17.060 15.65c0.215 0.184 0.35 0.456 0.35 0.76 0 0.552-0.448 1-1 1-0.303 0-0.575-0.135-0.758-0.348l-0.001-0.001-1.4-1.4c-0.215-0.184-0.35-0.456-0.35-0.76 0-0.552 0.448-1 1-1 0.303 0 0.575 0.135 0.758 0.348l0.001 0.001 1.4 1.4zM11 18.99c0 0.552-0.448 1-1 1s-1-0.448-1-1v0-1.98c0-0.552 0.448-1 1-1s1 0.448 1 1v0 1.98zM4.35 17.060c-0.184 0.215-0.456 0.35-0.76 0.35-0.552 0-1-0.448-1-1 0-0.303 0.135-0.575 0.348-0.758l0.001-0.001 1.4-1.4c0.184-0.215 0.456-0.35 0.76-0.35 0.552 0 1 0.448 1 1 0 0.303-0.135 0.575-0.348 0.758l-0.001 0.001-1.4 1.4zM1.010 11c-0.552 0-1-0.448-1-1s0.448-1 1-1v0h1.98c0.552 0 1 0.448 1 1s-0.448 1-1 1v0h-1.98zM2.94 4.35c-0.215-0.184-0.35-0.456-0.35-0.76 0-0.552 0.448-1 1-1 0.303 0 0.575 0.135 0.758 0.348l0.001 0.001 1.4 1.4c0.215 0.184 0.35 0.456 0.35 0.76 0 0.552-0.448 1-1 1-0.303 0-0.575-0.135-0.758-0.348l-0.001-0.001-1.4-1.4z"></path>
</symbol>
<symbol id="icon-location-park" viewBox="0 0 20 20">
<path d="M5.33 12.77c-0.41 0.155-0.884 0.245-1.38 0.245-2.209 0-4-1.791-4-4 0-1.872 1.286-3.443 3.022-3.88l0.028-0.006v-0.13c0-0.001 0-0.003 0-0.004 0-2.209 1.791-4 4-4 0.621 0 1.209 0.142 1.734 0.394l-0.024-0.010c0.646-0.846 1.655-1.386 2.79-1.386 1.773 0 3.238 1.318 3.468 3.028l0.002 0.018c1.038 0.205 1.836 1.030 1.998 2.066l0.002 0.014c1.748 0.454 3.017 2.017 3.017 3.877 0 2.209-1.791 4-4 4-0.624 0-1.215-0.143-1.741-0.398l0.024 0.010c-0.541 0.869-1.317 1.548-2.238 1.957l-0.032 0.013v3.42l2 1v1h-8v-1l2-1v-3l-2.67-2.23zM5 10l3 3v-3h-3z"></path>
</symbol>
<symbol id="icon-envelope1" viewBox="0 0 32 32">
<path d="M16.015 18.861l-4.072-3.343-8.862 10.463h25.876l-8.863-10.567-4.079 3.447zM29.926 6.019h-27.815l13.908 11.698 13.907-11.698zM20.705 14.887l9.291 11.084v-18.952l-9.291 7.868zM2.004 7.019v18.952l9.291-11.084-9.291-7.868z"></path>
</symbol>
<symbol id="icon-applepodcasts" viewBox="0 0 32 32">
<path fill="#93c" style="fill: var(--color1, #93c)" d="M7.12 0c-0.005 0-0.010-0-0.016-0-3.923 0-7.104 3.181-7.104 7.104 0 0.006 0 0.011 0 0.017v-0.001 17.76c0 0.005-0 0.010-0 0.016 0 3.923 3.181 7.104 7.104 7.104 0.006 0 0.011 0 0.017-0h17.759c0.005 0 0.010 0 0.016 0 3.923 0 7.104-3.181 7.104-7.104 0-0.006 0-0.011-0-0.017v0.001-17.76c0-0.005 0-0.010 0-0.016 0-3.923-3.181-7.104-7.104-7.104-0.006 0-0.011 0-0.017 0h0.001zM15.82 3.424c3.115 0 5.931 1.203 8.075 3.449 1.632 1.696 2.549 3.492 3.019 5.856 0.16 0.787 0.16 2.933 0.009 3.819-0.527 2.9-2.094 5.363-4.292 7.041l-0.028 0.020c-0.811 0.613-2.795 1.681-3.115 1.681-0.117 0-0.128-0.121-0.075-0.613 0.096-0.789 0.192-0.953 0.64-1.141 0.715-0.299 1.931-1.165 2.677-1.913 1.265-1.264 2.199-2.859 2.662-4.644l0.016-0.071c0.277-1.099 0.245-3.541-0.064-4.672-0.971-3.595-3.904-6.389-7.499-7.136-1.045-0.213-2.944-0.213-4 0-3.637 0.747-6.645 3.68-7.563 7.371-0.245 1.003-0.245 3.445 0 4.448 0.608 2.443 2.187 4.683 4.256 6.016 0.405 0.267 0.896 0.544 1.099 0.629 0.448 0.192 0.544 0.352 0.629 1.141 0.053 0.48 0.040 0.619-0.075 0.619-0.075 0-0.619-0.235-1.195-0.512l-0.053-0.040c-3.296-1.621-5.408-4.365-6.176-8.016-0.192-0.941-0.224-3.189-0.040-4.053 0.48-2.32 1.397-4.133 2.923-5.739 2.197-2.316 5.024-3.541 8.169-3.54zM15.999 7.171c0.545 0.005 1.071 0.053 1.475 0.141 3.712 0.827 6.347 4.544 5.835 8.232-0.203 1.485-0.715 2.707-1.621 3.84-0.448 0.573-1.536 1.533-1.728 1.533-0.031 0-0.064-0.363-0.064-0.804v-0.807l0.555-0.661c2.091-2.504 1.941-6.003-0.341-8.299-0.885-0.893-1.909-1.419-3.232-1.661-0.853-0.157-1.035-0.157-1.931-0.011-1.36 0.223-2.413 0.749-3.349 1.675-2.293 2.272-2.443 5.789-0.352 8.296l0.551 0.661v0.811c0 0.448-0.036 0.811-0.080 0.811-0.040 0-0.352-0.213-0.683-0.48l-0.045-0.015c-1.109-0.885-2.091-2.456-2.496-3.996-0.245-0.931-0.245-2.699 0.011-3.627 0.672-2.504 2.517-4.447 5.077-5.359 0.547-0.193 1.511-0.293 2.42-0.281zM15.825 11.157c0.413 0 0.827 0.080 1.125 0.237 0.651 0.337 1.184 0.993 1.387 1.679 0.619 2.104-1.611 3.947-3.627 3.005h-0.020c-0.949-0.441-1.461-1.275-1.472-2.36 0-0.977 0.544-1.828 1.483-2.327 0.299-0.156 0.712-0.235 1.124-0.235zM15.811 17.461c1.317-0.005 2.275 0.465 2.627 1.293 0.264 0.619 0.165 2.576-0.291 5.736-0.309 2.208-0.48 2.765-0.907 3.141-0.587 0.52-1.419 0.664-2.208 0.384h-0.004c-0.955-0.343-1.16-0.807-1.552-3.525-0.455-3.16-0.555-5.117-0.291-5.736 0.349-0.821 1.299-1.288 2.625-1.293z"></path>
</symbol>
<symbol id="icon-home3" viewBox="0 0 32 32">
<path d="M32 19l-6-6v-9h-4v5l-6-6-16 16v1h4v10h10v-6h4v6h10v-10h4z"></path>
</symbol>
<symbol id="icon-leaf" viewBox="0 0 32 32">
<path d="M31.604 4.203c-3.461-2.623-8.787-4.189-14.247-4.189-6.754 0-12.257 2.358-15.099 6.469-1.335 1.931-2.073 4.217-2.194 6.796-0.108 2.296 0.278 4.835 1.146 7.567 2.965-8.887 11.244-15.847 20.79-15.847 0 0-8.932 2.351-14.548 9.631-0.003 0.004-0.078 0.097-0.207 0.272-1.128 1.509-2.111 3.224-2.846 5.166-1.246 2.963-2.4 7.030-2.4 11.931h4c0 0-0.607-3.819 0.449-8.212 1.747 0.236 3.308 0.353 4.714 0.353 3.677 0 6.293-0.796 8.231-2.504 1.736-1.531 2.694-3.587 3.707-5.764 1.548-3.325 3.302-7.094 8.395-10.005 0.292-0.167 0.48-0.468 0.502-0.804s-0.126-0.659-0.394-0.862z"></path>
</symbol>
<symbol id="icon-earth" viewBox="0 0 32 32">
<path d="M16 0c-8.837 0-16 7.163-16 16s7.163 16 16 16 16-7.163 16-16-7.163-16-16-16zM16 30c-1.967 0-3.84-0.407-5.538-1.139l7.286-8.197c0.163-0.183 0.253-0.419 0.253-0.664v-3c0-0.552-0.448-1-1-1-3.531 0-7.256-3.671-7.293-3.707-0.188-0.188-0.442-0.293-0.707-0.293h-4c-0.552 0-1 0.448-1 1v6c0 0.379 0.214 0.725 0.553 0.894l3.447 1.724v5.871c-3.627-2.53-6-6.732-6-11.489 0-2.147 0.484-4.181 1.348-6h3.652c0.265 0 0.52-0.105 0.707-0.293l4-4c0.188-0.188 0.293-0.442 0.293-0.707v-2.419c1.268-0.377 2.61-0.581 4-0.581 2.2 0 4.281 0.508 6.134 1.412-0.13 0.109-0.256 0.224-0.376 0.345-1.133 1.133-1.757 2.64-1.757 4.243s0.624 3.109 1.757 4.243c1.139 1.139 2.663 1.758 4.239 1.758 0.099 0 0.198-0.002 0.297-0.007 0.432 1.619 1.211 5.833-0.263 11.635-0.014 0.055-0.022 0.109-0.026 0.163-2.541 2.596-6.084 4.208-10.004 4.208z"></path>
</symbol>
<symbol id="icon-arrow-up" viewBox="0 0 32 32">
<path d="M16 1l-15 15h9v16h12v-16h9z"></path>
</symbol>
<symbol id="icon-mail4" viewBox="0 0 32 32">
<path d="M16 0c-8.837 0-16 7.163-16 16s7.163 16 16 16 16-7.163 16-16-7.163-16-16-16zM8 8h16c0.286 0 0.563 0.061 0.817 0.177l-8.817 10.286-8.817-10.287c0.254-0.116 0.531-0.177 0.817-0.177zM6 22v-12c0-0.042 0.002-0.084 0.004-0.125l5.864 6.842-5.8 5.8c-0.045-0.167-0.069-0.34-0.069-0.517zM24 24h-16c-0.177 0-0.35-0.024-0.517-0.069l5.691-5.691 2.826 3.297 2.826-3.297 5.691 5.691c-0.167 0.045-0.34 0.069-0.517 0.069zM26 22c0 0.177-0.024 0.35-0.069 0.517l-5.8-5.8 5.865-6.842c0.003 0.041 0.004 0.083 0.004 0.125v12z"></path>
</symbol>
</defs>
</svg>
